<?xml version="1.0" standalone="no"?>
<!DOCTYPE svg PUBLIC "-//W3C//DTD SVG 20010904//EN"
 "http://www.w3.org/TR/2001/REC-SVG-20010904/DTD/svg10.dtd">
<svg version="1.0" xmlns="http://www.w3.org/2000/svg"
 width="2679.000000pt" height="2679.000000pt" viewBox="0 0 2679.000000 2679.000000"
 preserveAspectRatio="xMidYMid meet">
<metadata>
Created by potrace 1.11, written by Peter Selinger 2001-2013
</metadata>
<g transform="translate(0.000000,2679.000000) scale(0.100000,-0.100000)"
fill="#000000" stroke="none">
<path d="M6308 26785 c-1 -1 -37 -6 -78 -9 -156 -13 -284 -35 -475 -80 -186
-45 -444 -144 -645 -247 -296 -153 -518 -316 -766 -563 -370 -370 -615 -771
-778 -1271 -44 -135 -86 -308 -101 -420 -3 -16 -7 -39 -10 -51 -2 -11 -7 -45
-10 -75 -3 -30 -8 -63 -10 -74 -7 -34 -18 -245 -18 -340 0 -94 11 -317 17
-351 2 -10 7 -44 11 -74 12 -96 16 -124 25 -165 5 -22 12 -56 15 -75 7 -40 42
-181 56 -225 64 -204 109 -324 177 -468 397 -842 1148 -1466 2036 -1693 148
-38 208 -49 391 -72 206 -27 523 -30 681 -7 17 2 57 7 90 10 136 14 401 76
576 135 178 60 480 198 570 261 14 11 28 19 31 19 3 0 41 23 84 52 650 430
1103 1049 1313 1793 17 61 33 126 36 145 3 19 8 38 9 41 5 6 41 226 49 289 26
213 26 590 1 753 -11 70 -19 124 -21 142 -4 39 -15 100 -24 135 -5 19 -11 46
-14 60 -69 348 -273 803 -507 1130 -170 237 -424 502 -624 650 -33 25 -62 47
-65 51 -3 3 -27 20 -55 39 -27 19 -52 36 -55 39 -3 3 -16 12 -30 20 -14 8 -54
32 -89 54 -35 21 -80 48 -100 60 -45 26 -249 127 -255 127 -3 0 -29 11 -58 24
-29 13 -69 29 -88 36 -19 7 -44 16 -55 21 -55 23 -307 96 -365 105 -19 3 -38
8 -41 9 -6 4 -180 33 -244 41 -22 3 -53 7 -70 10 -35 5 -512 14 -517 9z"/>
<path d="M11407 26634 c-1 -1 -35 -5 -75 -8 -40 -4 -83 -11 -95 -15 -12 -5
-24 -9 -27 -9 -54 -3 -208 -59 -297 -108 -278 -154 -504 -425 -626 -749 -28
-73 -64 -204 -73 -265 -3 -19 -7 -46 -10 -60 -2 -14 -7 -61 -11 -105 -9 -105
-9 -3687 0 -3790 59 -694 543 -1244 1152 -1310 57 -6 4063 -6 4105 0 33 5 72
11 130 21 52 9 168 49 237 81 204 95 413 281 545 483 99 152 204 422 223 574
2 17 9 58 14 91 13 78 13 3826 0 3913 -21 144 -39 222 -81 342 -115 326 -321
586 -598 751 -127 77 -303 138 -440 155 -50 6 -4066 14 -4073 8z"/>
<path d="M18113 26628 c-200 -20 -397 -98 -573 -225 -70 -51 -270 -247 -270
-264 0 -4 -6 -14 -13 -21 -54 -54 -165 -266 -215 -409 -32 -89 -65 -233 -78
-334 -10 -78 -11 -3799 -1 -3890 28 -245 112 -484 242 -686 200 -311 530 -534
850 -575 22 -3 51 -7 65 -10 32 -5 4057 -5 4090 0 14 3 44 7 67 10 97 12 205
46 320 101 318 151 583 464 697 825 43 135 58 204 75 345 10 85 7 3856 -3
3905 -4 19 -16 76 -26 125 -60 288 -197 544 -399 746 -187 186 -370 286 -621
341 -94 21 -109 21 -2115 22 -1111 1 -2053 -2 -2092 -6z"/>
<path d="M4525 19889 c-200 -29 -359 -92 -533 -212 -76 -52 -219 -187 -268
-253 -16 -22 -31 -41 -34 -44 -28 -25 -138 -220 -170 -300 -12 -30 -28 -68
-35 -85 -26 -62 -69 -238 -82 -341 -11 -79 -10 -3863 0 -3939 8 -57 27 -150
46 -225 27 -108 103 -284 173 -398 203 -334 553 -571 898 -610 36 -4 985 -7
2110 -7 1950 0 2049 1 2130 19 242 52 433 158 616 341 222 221 355 484 415
815 21 120 23 279 23 2065 0 1439 -3 1870 -13 1940 -36 259 -124 489 -265 694
-54 79 -210 243 -286 303 -99 76 -232 146 -358 187 -85 29 -109 34 -222 51
-69 9 -4077 9 -4145 -1z"/>
<path d="M11315 19888 c-471 -64 -871 -419 -1042 -923 -37 -110 -69 -253 -79
-360 -10 -96 -11 -3708 -1 -3819 50 -587 418 -1093 914 -1255 180 -59 71 -56
2288 -56 1122 0 2063 3 2090 7 310 46 583 205 788 460 45 56 157 222 157 233
0 3 15 38 34 78 41 86 79 196 101 292 21 93 23 102 32 166 10 69 11 3888 1
3950 -63 394 -240 728 -499 945 -77 65 -82 68 -159 116 -112 70 -249 127 -360
148 -30 6 -66 14 -80 17 -40 9 -4119 10 -4185 1z"/>
<path d="M18217 13254 c-1 -1 -40 -4 -87 -8 -47 -3 -100 -10 -118 -15 -18 -5
-36 -10 -40 -11 -20 -2 -93 -24 -140 -41 -385 -141 -710 -519 -822 -959 -28
-108 -39 -170 -47 -255 -9 -92 -9 -3770 0 -3857 5 -55 18 -128 42 -238 23
-104 97 -282 169 -404 211 -355 547 -585 921 -629 74 -9 603 -12 2065 -11
1081 1 1990 3 2020 4 48 2 89 8 178 26 117 24 299 106 419 190 103 72 259 235
335 349 112 170 206 393 234 560 4 22 8 49 10 60 3 11 8 52 12 90 10 97 9
3805 -1 3885 -9 68 -10 71 -21 135 -11 55 -54 206 -66 227 -6 10 -10 23 -10
29 0 18 -97 211 -141 279 -57 88 -109 152 -193 236 -61 61 -215 184 -230 184
-3 0 -27 13 -53 28 -115 68 -296 124 -439 137 -55 6 -3990 14 -3997 9z"/>
<path d="M4505 13150 c-192 -29 -389 -114 -550 -235 -67 -51 -209 -197 -267
-275 -72 -98 -158 -261 -202 -382 -19 -54 -33 -98 -30 -98 2 0 0 -8 -5 -19 -6
-10 -13 -33 -16 -52 -3 -19 -8 -42 -11 -51 -7 -24 -11 -45 -20 -118 -11 -81
-12 -3839 -1 -3935 4 -38 12 -86 17 -105 5 -19 12 -51 15 -70 3 -19 21 -81 40
-138 171 -512 594 -881 1065 -929 87 -9 4024 -9 4120 0 131 12 312 69 430 134
150 84 319 233 422 374 163 220 274 517 295 786 4 49 7 927 6 1953 0 1971 2
1860 -39 2085 -21 114 -122 360 -192 469 -117 182 -293 359 -444 447 -115 67
-275 129 -403 155 -51 10 -4163 14 -4230 4z"/>
<path d="M11320 13153 c-55 -6 -197 -42 -259 -65 -56 -21 -210 -98 -233 -117
-7 -6 -49 -39 -93 -74 -96 -75 -114 -93 -187 -177 -171 -199 -312 -512 -342
-762 -3 -27 -9 -69 -13 -95 -9 -66 -10 -3685 -1 -3803 13 -161 63 -371 120
-497 12 -26 22 -50 23 -53 10 -41 139 -247 196 -315 196 -232 429 -375 709
-436 l105 -23 2035 0 c1119 0 2058 3 2085 7 363 47 681 254 894 582 119 183
195 384 232 615 17 108 18 226 18 2010 0 1896 -2 1985 -33 2087 -3 10 -8 32
-11 50 -18 108 -119 351 -193 467 -184 287 -464 499 -757 572 -16 4 -34 8 -40
10 -81 20 -303 23 -2175 22 -1125 -1 -2061 -3 -2080 -5z"/>
<path d="M4590 6422 c-297 -18 -607 -177 -825 -423 -172 -194 -290 -443 -350
-739 -17 -84 -20 -347 -20 -2055 0 -1705 3 -1991 20 -2036 3 -8 7 -27 9 -44
23 -155 120 -388 233 -559 58 -87 211 -255 279 -307 160 -122 323 -198 514
-239 81 -18 185 -18 2150 -19 2214 0 2108 -2 2275 50 509 157 882 663 933
1264 8 105 7 3771 -1 3829 -4 21 -9 57 -12 80 -18 134 -80 325 -150 468 -31
63 -109 193 -125 208 -3 3 -18 22 -33 43 -43 58 -155 170 -222 221 -33 26 -64
50 -70 54 -18 14 -129 77 -165 94 -106 50 -241 89 -350 103 -51 7 -3988 14
-4090 7z"/>
<path d="M11447 6424 c-1 -1 -38 -4 -82 -7 -232 -18 -451 -108 -644 -262 -39
-32 -211 -207 -211 -216 0 -4 -6 -14 -14 -22 -51 -51 -182 -296 -221 -411 -34
-103 -64 -236 -76 -337 -9 -79 -12 -532 -13 -1929 0 -1652 3 -1913 20 -2045 8
-64 51 -223 83 -310 131 -352 386 -639 695 -780 73 -33 183 -71 235 -80 14 -2
49 -9 76 -14 32 -7 806 -10 2110 -10 2038 0 2061 0 2155 20 238 51 429 159
615 344 119 118 193 222 269 373 39 77 96 226 112 291 2 9 8 34 13 56 10 41
14 62 28 150 4 28 8 923 8 1990 l0 1940 -22 110 c-128 626 -567 1075 -1118
1141 -46 6 -4011 13 -4018 8z"/>
</g>
</svg>
